<?xml version="1.0" encoding="utf-8"?>
<!-- Generator: Adobe Illustrator 24.1.3, SVG Export Plug-In . SVG Version: 6.00 Build 0)  -->
<svg version="1.1" id="Layer_1" xmlns="http://www.w3.org/2000/svg" x="0px"
	 y="0px"
	 viewBox="0 0 700 350" style="enable-background:new 0 0 700 350;" xml:space="preserve">
<style type="text/css">
	.st0{fill:#FFFFFF;}
	.st1{fill:#FF4E08;}
</style>
    <g>
	<g>
		<g>
			<g>
				<path class="st0" d="M278.2,90.3H294v127.6h-15.8V90.3z"/>
			</g>
            <g>
				<path class="st0" d="M388.6,206.1v12.6c-4.2,1.4-7,1.9-11.7,1.9c-8,0-12.5-4.2-13.2-11.1c-8.2,8.2-15.8,11.7-25.8,11.7
					c-13.9,0-22.6-8.4-22.6-20.9c0-14.3,13.2-24.2,47.4-28.9v-4.7c0-11-4.5-15.8-13.1-15.8c-8.7,0-16,4.7-21.8,13.1l-0.6,0.7
					l-11.3-7.5c7.3-12.2,20.5-20,35-20c17.4,0,27.5,9.4,27.5,26.8v39.7c0,3.5,1,4.5,3.8,4.5c1.6,0,2.7-0.2,4.9-1.2
					C387.5,206.7,388.6,206.1,388.6,206.1z M342.4,209c7.7,0,14.5-3.3,20.2-8.9v-18.3c-23,3.8-31.3,8.9-31.3,17.4
					C331.3,205.5,335.1,209,342.4,209z"/>
			</g>
            <g>
				<path class="st0" d="M406.3,140.4h14.5v15.1c6.6-13.1,14.8-18.5,25.1-18.5c7.7,0,13.8,4.2,16.7,13.2l-14.3,8.3
					c0,0-0.4-0.7-0.5-1c-2-4.5-4.4-6.1-8.4-6.1c-8.5,0-17.2,11.1-17.2,30.3v36h-15.8v-77.3H406.3z"/>
			</g>
            <g>
				<path class="st0" d="M474.4,104.5c0-6.1,4.7-10.8,11-10.8c6.1,0,11,4.9,11,11c0,5.9-4.9,10.5-11,10.5
					C479.2,115.2,474.4,110.6,474.4,104.5z M477.3,140.4h15.8v77.5h-15.8V140.4z"/>
			</g>
            <g>
				<path class="st0" d="M562.6,218.6c-4.4,1.7-9.6,2.6-15,2.6c-15.1,0-23.9-8.5-23.9-23.9v-43.9h-14.6v-13.1H524v-23.5l15.7-9.2
					v32.8h22.8v13.1h-22.8v39.3c0,10.6,3,14.1,11.5,14.1c3.1,0,6.1-0.8,9.4-2.4c0.4-0.2,2.1-1,2.1-1v15.1H562.6z"/>
			</g>
            <g>
				<path class="st0" d="M578.4,104.5c0-6.1,4.7-10.8,11-10.8c6.1,0,11,4.9,11,11c0,5.9-4.9,10.5-11,10.5
					C583.3,115.2,578.4,110.6,578.4,104.5z M581.4,140.4h15.8v77.5h-15.8V140.4z"/>
			</g>
		</g>
	</g>
        <g>
		<path class="st0" d="M173,153.7h-7.3c0-20.3,16.5-36.8,36.8-36.8v7.3C186.3,124.2,173,137.4,173,153.7z"/>
	</g>
        <path class="st1" d="M243.9,179.1l-1.2,2.1c-9.2,16.7-21.8,24-41.4,24c-26.5,0-46.7-20.9-46.7-48.9c0-28.2,19.8-48.9,46.5-48.9
		c18.1,0,31.2,7.5,40.7,24.4l1.3,1.8l13.8-9.2c-12-22.1-31-32.9-56.2-32.9c-36.7,0-64.2,27.5-64.2,64.9c0,18.3,6.5,34.1,17.4,45.6
		l-8.9,10.8l-3.6-2.9L86.3,277l14.7,12l55.2-67.3l-3.6-3l8.6-10.5c10.7,8.2,24.3,12.9,39.6,12.9c25.6,0,43.9-10.4,56.8-32.6
		L243.9,179.1z"/>
</g>
</svg>
